%TF.GenerationSoftware,KiCad,Pcbnew,(6.0.7)*%
%TF.CreationDate,2022-08-09T22:59:19-05:00*%
%TF.ProjectId,garage-door_opener,67617261-6765-42d6-946f-6f725f6f7065,rev?*%
%TF.SameCoordinates,Original*%
%TF.FileFunction,Drillmap*%
%TF.FilePolarity,Positive*%
%FSLAX45Y45*%
G04 Gerber Fmt 4.5, Leading zero omitted, Abs format (unit mm)*
G04 Created by KiCad (PCBNEW (6.0.7)) date 2022-08-09 22:59:19*
%MOMM*%
%LPD*%
G01*
G04 APERTURE LIST*
%ADD10C,0.100000*%
%ADD11C,0.200000*%
%ADD12C,0.350000*%
G04 APERTURE END LIST*
D10*
X12700000Y-10668000D02*
G75*
G03*
X12954000Y-10922000I254000J0D01*
G01*
X21590000Y-4064000D02*
G75*
G03*
X21336000Y-3810000I-254000J0D01*
G01*
X21336000Y-10922000D02*
G75*
G03*
X21590000Y-10668000I0J254000D01*
G01*
X12954000Y-10922000D02*
X21336000Y-10922000D01*
X21590000Y-10668000D02*
X21590000Y-4064000D01*
X12954000Y-3810000D02*
G75*
G03*
X12700000Y-4064000I0J-254000D01*
G01*
X21336000Y-3810000D02*
X12954000Y-3810000D01*
X12700000Y-4064000D02*
X12700000Y-10668000D01*
D11*
D12*
X19103600Y-7489400D02*
X19453600Y-7839400D01*
X19453600Y-7489400D02*
X19103600Y-7839400D01*
X20424400Y-7489400D02*
X20774400Y-7839400D01*
X20774400Y-7489400D02*
X20424400Y-7839400D01*
D11*
X12952619Y-11237476D02*
X12952619Y-11037476D01*
X13000238Y-11037476D01*
X13028809Y-11047000D01*
X13047857Y-11066048D01*
X13057381Y-11085095D01*
X13066905Y-11123190D01*
X13066905Y-11151762D01*
X13057381Y-11189857D01*
X13047857Y-11208905D01*
X13028809Y-11227952D01*
X13000238Y-11237476D01*
X12952619Y-11237476D01*
X13152619Y-11237476D02*
X13152619Y-11104143D01*
X13152619Y-11142238D02*
X13162143Y-11123190D01*
X13171667Y-11113667D01*
X13190714Y-11104143D01*
X13209762Y-11104143D01*
X13276428Y-11237476D02*
X13276428Y-11104143D01*
X13276428Y-11037476D02*
X13266905Y-11047000D01*
X13276428Y-11056524D01*
X13285952Y-11047000D01*
X13276428Y-11037476D01*
X13276428Y-11056524D01*
X13400238Y-11237476D02*
X13381190Y-11227952D01*
X13371667Y-11208905D01*
X13371667Y-11037476D01*
X13505000Y-11237476D02*
X13485952Y-11227952D01*
X13476428Y-11208905D01*
X13476428Y-11037476D01*
X13733571Y-11237476D02*
X13733571Y-11037476D01*
X13800238Y-11180333D01*
X13866905Y-11037476D01*
X13866905Y-11237476D01*
X14047857Y-11237476D02*
X14047857Y-11132714D01*
X14038333Y-11113667D01*
X14019286Y-11104143D01*
X13981190Y-11104143D01*
X13962143Y-11113667D01*
X14047857Y-11227952D02*
X14028809Y-11237476D01*
X13981190Y-11237476D01*
X13962143Y-11227952D01*
X13952619Y-11208905D01*
X13952619Y-11189857D01*
X13962143Y-11170810D01*
X13981190Y-11161286D01*
X14028809Y-11161286D01*
X14047857Y-11151762D01*
X14143095Y-11104143D02*
X14143095Y-11304143D01*
X14143095Y-11113667D02*
X14162143Y-11104143D01*
X14200238Y-11104143D01*
X14219286Y-11113667D01*
X14228809Y-11123190D01*
X14238333Y-11142238D01*
X14238333Y-11199381D01*
X14228809Y-11218428D01*
X14219286Y-11227952D01*
X14200238Y-11237476D01*
X14162143Y-11237476D01*
X14143095Y-11227952D01*
X14324048Y-11218428D02*
X14333571Y-11227952D01*
X14324048Y-11237476D01*
X14314524Y-11227952D01*
X14324048Y-11218428D01*
X14324048Y-11237476D01*
X14324048Y-11113667D02*
X14333571Y-11123190D01*
X14324048Y-11132714D01*
X14314524Y-11123190D01*
X14324048Y-11113667D01*
X14324048Y-11132714D01*
X12495000Y-11467000D02*
X12695000Y-11667000D01*
X12695000Y-11467000D02*
X12495000Y-11667000D01*
X12933571Y-11457476D02*
X13057381Y-11457476D01*
X12990714Y-11533667D01*
X13019286Y-11533667D01*
X13038333Y-11543190D01*
X13047857Y-11552714D01*
X13057381Y-11571762D01*
X13057381Y-11619381D01*
X13047857Y-11638428D01*
X13038333Y-11647952D01*
X13019286Y-11657476D01*
X12962143Y-11657476D01*
X12943095Y-11647952D01*
X12933571Y-11638428D01*
X13143095Y-11638428D02*
X13152619Y-11647952D01*
X13143095Y-11657476D01*
X13133571Y-11647952D01*
X13143095Y-11638428D01*
X13143095Y-11657476D01*
X13333571Y-11457476D02*
X13238333Y-11457476D01*
X13228809Y-11552714D01*
X13238333Y-11543190D01*
X13257381Y-11533667D01*
X13305000Y-11533667D01*
X13324048Y-11543190D01*
X13333571Y-11552714D01*
X13343095Y-11571762D01*
X13343095Y-11619381D01*
X13333571Y-11638428D01*
X13324048Y-11647952D01*
X13305000Y-11657476D01*
X13257381Y-11657476D01*
X13238333Y-11647952D01*
X13228809Y-11638428D01*
X13466905Y-11457476D02*
X13485952Y-11457476D01*
X13505000Y-11467000D01*
X13514524Y-11476524D01*
X13524048Y-11495571D01*
X13533571Y-11533667D01*
X13533571Y-11581286D01*
X13524048Y-11619381D01*
X13514524Y-11638428D01*
X13505000Y-11647952D01*
X13485952Y-11657476D01*
X13466905Y-11657476D01*
X13447857Y-11647952D01*
X13438333Y-11638428D01*
X13428809Y-11619381D01*
X13419286Y-11581286D01*
X13419286Y-11533667D01*
X13428809Y-11495571D01*
X13438333Y-11476524D01*
X13447857Y-11467000D01*
X13466905Y-11457476D01*
X13657381Y-11457476D02*
X13676428Y-11457476D01*
X13695476Y-11467000D01*
X13705000Y-11476524D01*
X13714524Y-11495571D01*
X13724048Y-11533667D01*
X13724048Y-11581286D01*
X13714524Y-11619381D01*
X13705000Y-11638428D01*
X13695476Y-11647952D01*
X13676428Y-11657476D01*
X13657381Y-11657476D01*
X13638333Y-11647952D01*
X13628809Y-11638428D01*
X13619286Y-11619381D01*
X13609762Y-11581286D01*
X13609762Y-11533667D01*
X13619286Y-11495571D01*
X13628809Y-11476524D01*
X13638333Y-11467000D01*
X13657381Y-11457476D01*
X13809762Y-11657476D02*
X13809762Y-11524143D01*
X13809762Y-11543190D02*
X13819286Y-11533667D01*
X13838333Y-11524143D01*
X13866905Y-11524143D01*
X13885952Y-11533667D01*
X13895476Y-11552714D01*
X13895476Y-11657476D01*
X13895476Y-11552714D02*
X13905000Y-11533667D01*
X13924048Y-11524143D01*
X13952619Y-11524143D01*
X13971667Y-11533667D01*
X13981190Y-11552714D01*
X13981190Y-11657476D01*
X14076428Y-11657476D02*
X14076428Y-11524143D01*
X14076428Y-11543190D02*
X14085952Y-11533667D01*
X14105000Y-11524143D01*
X14133571Y-11524143D01*
X14152619Y-11533667D01*
X14162143Y-11552714D01*
X14162143Y-11657476D01*
X14162143Y-11552714D02*
X14171667Y-11533667D01*
X14190714Y-11524143D01*
X14219286Y-11524143D01*
X14238333Y-11533667D01*
X14247857Y-11552714D01*
X14247857Y-11657476D01*
X14638333Y-11447952D02*
X14466905Y-11705095D01*
X14895476Y-11457476D02*
X14914524Y-11457476D01*
X14933571Y-11467000D01*
X14943095Y-11476524D01*
X14952619Y-11495571D01*
X14962143Y-11533667D01*
X14962143Y-11581286D01*
X14952619Y-11619381D01*
X14943095Y-11638428D01*
X14933571Y-11647952D01*
X14914524Y-11657476D01*
X14895476Y-11657476D01*
X14876428Y-11647952D01*
X14866905Y-11638428D01*
X14857381Y-11619381D01*
X14847857Y-11581286D01*
X14847857Y-11533667D01*
X14857381Y-11495571D01*
X14866905Y-11476524D01*
X14876428Y-11467000D01*
X14895476Y-11457476D01*
X15047857Y-11638428D02*
X15057381Y-11647952D01*
X15047857Y-11657476D01*
X15038333Y-11647952D01*
X15047857Y-11638428D01*
X15047857Y-11657476D01*
X15247857Y-11657476D02*
X15133571Y-11657476D01*
X15190714Y-11657476D02*
X15190714Y-11457476D01*
X15171667Y-11486048D01*
X15152619Y-11505095D01*
X15133571Y-11514619D01*
X15314524Y-11457476D02*
X15438333Y-11457476D01*
X15371667Y-11533667D01*
X15400238Y-11533667D01*
X15419286Y-11543190D01*
X15428809Y-11552714D01*
X15438333Y-11571762D01*
X15438333Y-11619381D01*
X15428809Y-11638428D01*
X15419286Y-11647952D01*
X15400238Y-11657476D01*
X15343095Y-11657476D01*
X15324048Y-11647952D01*
X15314524Y-11638428D01*
X15505000Y-11457476D02*
X15638333Y-11457476D01*
X15552619Y-11657476D01*
X15743095Y-11543190D02*
X15724048Y-11533667D01*
X15714524Y-11524143D01*
X15705000Y-11505095D01*
X15705000Y-11495571D01*
X15714524Y-11476524D01*
X15724048Y-11467000D01*
X15743095Y-11457476D01*
X15781190Y-11457476D01*
X15800238Y-11467000D01*
X15809762Y-11476524D01*
X15819286Y-11495571D01*
X15819286Y-11505095D01*
X15809762Y-11524143D01*
X15800238Y-11533667D01*
X15781190Y-11543190D01*
X15743095Y-11543190D01*
X15724048Y-11552714D01*
X15714524Y-11562238D01*
X15705000Y-11581286D01*
X15705000Y-11619381D01*
X15714524Y-11638428D01*
X15724048Y-11647952D01*
X15743095Y-11657476D01*
X15781190Y-11657476D01*
X15800238Y-11647952D01*
X15809762Y-11638428D01*
X15819286Y-11619381D01*
X15819286Y-11581286D01*
X15809762Y-11562238D01*
X15800238Y-11552714D01*
X15781190Y-11543190D01*
X15895476Y-11457476D02*
X15895476Y-11495571D01*
X15971667Y-11457476D02*
X15971667Y-11495571D01*
X16266905Y-11733667D02*
X16257381Y-11724143D01*
X16238333Y-11695571D01*
X16228809Y-11676524D01*
X16219286Y-11647952D01*
X16209762Y-11600333D01*
X16209762Y-11562238D01*
X16219286Y-11514619D01*
X16228809Y-11486048D01*
X16238333Y-11467000D01*
X16257381Y-11438428D01*
X16266905Y-11428905D01*
X16333571Y-11476524D02*
X16343095Y-11467000D01*
X16362143Y-11457476D01*
X16409762Y-11457476D01*
X16428809Y-11467000D01*
X16438333Y-11476524D01*
X16447857Y-11495571D01*
X16447857Y-11514619D01*
X16438333Y-11543190D01*
X16324048Y-11657476D01*
X16447857Y-11657476D01*
X16685952Y-11657476D02*
X16685952Y-11457476D01*
X16771667Y-11657476D02*
X16771667Y-11552714D01*
X16762143Y-11533667D01*
X16743095Y-11524143D01*
X16714524Y-11524143D01*
X16695476Y-11533667D01*
X16685952Y-11543190D01*
X16895476Y-11657476D02*
X16876429Y-11647952D01*
X16866905Y-11638428D01*
X16857381Y-11619381D01*
X16857381Y-11562238D01*
X16866905Y-11543190D01*
X16876429Y-11533667D01*
X16895476Y-11524143D01*
X16924048Y-11524143D01*
X16943095Y-11533667D01*
X16952619Y-11543190D01*
X16962143Y-11562238D01*
X16962143Y-11619381D01*
X16952619Y-11638428D01*
X16943095Y-11647952D01*
X16924048Y-11657476D01*
X16895476Y-11657476D01*
X17076429Y-11657476D02*
X17057381Y-11647952D01*
X17047857Y-11628905D01*
X17047857Y-11457476D01*
X17228810Y-11647952D02*
X17209762Y-11657476D01*
X17171667Y-11657476D01*
X17152619Y-11647952D01*
X17143095Y-11628905D01*
X17143095Y-11552714D01*
X17152619Y-11533667D01*
X17171667Y-11524143D01*
X17209762Y-11524143D01*
X17228810Y-11533667D01*
X17238333Y-11552714D01*
X17238333Y-11571762D01*
X17143095Y-11590809D01*
X17314524Y-11647952D02*
X17333571Y-11657476D01*
X17371667Y-11657476D01*
X17390714Y-11647952D01*
X17400238Y-11628905D01*
X17400238Y-11619381D01*
X17390714Y-11600333D01*
X17371667Y-11590809D01*
X17343095Y-11590809D01*
X17324048Y-11581286D01*
X17314524Y-11562238D01*
X17314524Y-11552714D01*
X17324048Y-11533667D01*
X17343095Y-11524143D01*
X17371667Y-11524143D01*
X17390714Y-11533667D01*
X17466905Y-11733667D02*
X17476429Y-11724143D01*
X17495476Y-11695571D01*
X17505000Y-11676524D01*
X17514524Y-11647952D01*
X17524048Y-11600333D01*
X17524048Y-11562238D01*
X17514524Y-11514619D01*
X17505000Y-11486048D01*
X17495476Y-11467000D01*
X17476429Y-11438428D01*
X17466905Y-11428905D01*
X17828810Y-11733667D02*
X17819286Y-11724143D01*
X17800238Y-11695571D01*
X17790714Y-11676524D01*
X17781190Y-11647952D01*
X17771667Y-11600333D01*
X17771667Y-11562238D01*
X17781190Y-11514619D01*
X17790714Y-11486048D01*
X17800238Y-11467000D01*
X17819286Y-11438428D01*
X17828810Y-11428905D01*
X17905000Y-11524143D02*
X17905000Y-11657476D01*
X17905000Y-11543190D02*
X17914524Y-11533667D01*
X17933571Y-11524143D01*
X17962143Y-11524143D01*
X17981190Y-11533667D01*
X17990714Y-11552714D01*
X17990714Y-11657476D01*
X18114524Y-11657476D02*
X18095476Y-11647952D01*
X18085952Y-11638428D01*
X18076429Y-11619381D01*
X18076429Y-11562238D01*
X18085952Y-11543190D01*
X18095476Y-11533667D01*
X18114524Y-11524143D01*
X18143095Y-11524143D01*
X18162143Y-11533667D01*
X18171667Y-11543190D01*
X18181190Y-11562238D01*
X18181190Y-11619381D01*
X18171667Y-11638428D01*
X18162143Y-11647952D01*
X18143095Y-11657476D01*
X18114524Y-11657476D01*
X18238333Y-11524143D02*
X18314524Y-11524143D01*
X18266905Y-11457476D02*
X18266905Y-11628905D01*
X18276429Y-11647952D01*
X18295476Y-11657476D01*
X18314524Y-11657476D01*
X18533571Y-11524143D02*
X18533571Y-11724143D01*
X18533571Y-11533667D02*
X18552619Y-11524143D01*
X18590714Y-11524143D01*
X18609762Y-11533667D01*
X18619286Y-11543190D01*
X18628810Y-11562238D01*
X18628810Y-11619381D01*
X18619286Y-11638428D01*
X18609762Y-11647952D01*
X18590714Y-11657476D01*
X18552619Y-11657476D01*
X18533571Y-11647952D01*
X18743095Y-11657476D02*
X18724048Y-11647952D01*
X18714524Y-11628905D01*
X18714524Y-11457476D01*
X18905000Y-11657476D02*
X18905000Y-11552714D01*
X18895476Y-11533667D01*
X18876429Y-11524143D01*
X18838333Y-11524143D01*
X18819286Y-11533667D01*
X18905000Y-11647952D02*
X18885952Y-11657476D01*
X18838333Y-11657476D01*
X18819286Y-11647952D01*
X18809762Y-11628905D01*
X18809762Y-11609857D01*
X18819286Y-11590809D01*
X18838333Y-11581286D01*
X18885952Y-11581286D01*
X18905000Y-11571762D01*
X18971667Y-11524143D02*
X19047857Y-11524143D01*
X19000238Y-11457476D02*
X19000238Y-11628905D01*
X19009762Y-11647952D01*
X19028810Y-11657476D01*
X19047857Y-11657476D01*
X19190714Y-11647952D02*
X19171667Y-11657476D01*
X19133571Y-11657476D01*
X19114524Y-11647952D01*
X19105000Y-11628905D01*
X19105000Y-11552714D01*
X19114524Y-11533667D01*
X19133571Y-11524143D01*
X19171667Y-11524143D01*
X19190714Y-11533667D01*
X19200238Y-11552714D01*
X19200238Y-11571762D01*
X19105000Y-11590809D01*
X19371667Y-11657476D02*
X19371667Y-11457476D01*
X19371667Y-11647952D02*
X19352619Y-11657476D01*
X19314524Y-11657476D01*
X19295476Y-11647952D01*
X19285952Y-11638428D01*
X19276429Y-11619381D01*
X19276429Y-11562238D01*
X19285952Y-11543190D01*
X19295476Y-11533667D01*
X19314524Y-11524143D01*
X19352619Y-11524143D01*
X19371667Y-11533667D01*
X19447857Y-11733667D02*
X19457381Y-11724143D01*
X19476429Y-11695571D01*
X19485952Y-11676524D01*
X19495476Y-11647952D01*
X19505000Y-11600333D01*
X19505000Y-11562238D01*
X19495476Y-11514619D01*
X19485952Y-11486048D01*
X19476429Y-11467000D01*
X19457381Y-11438428D01*
X19447857Y-11428905D01*
M02*
