M48
; DRILL file {KiCad (6.0.7)} date Tue Aug  9 22:59:18 2022
; FORMAT={-:-/ absolute / inch / decimal}
; #@! TF.CreationDate,2022-08-09T22:59:18-05:00
; #@! TF.GenerationSoftware,Kicad,Pcbnew,(6.0.7)
; #@! TF.FileFunction,Plated,1,2,PTH
FMAT,2
INCH
; #@! TA.AperFunction,Plated,PTH,ViaDrill
T1C0.0157
; #@! TA.AperFunction,Plated,PTH,ComponentDrill
T2C0.0315
; #@! TA.AperFunction,Plated,PTH,ComponentDrill
T3C0.0394
; #@! TA.AperFunction,Plated,PTH,ComponentDrill
T4C0.0433
; #@! TA.AperFunction,Plated,PTH,ComponentDrill
T5C0.0512
; #@! TA.AperFunction,Plated,PTH,ComponentDrill
T6C0.1260
%
G90
G05
T1
X6.6923Y-2.0077
X8.32Y-3.61
T2
X6.7Y-2.2
X6.7Y-2.35
X7.1Y-2.2
X7.1Y-2.35
X7.38Y-2.67
X7.39Y-3.93
X7.78Y-2.67
X7.79Y-3.93
X7.92Y-2.67
X7.93Y-3.93
X8.32Y-2.67
X8.33Y-3.93
T3
X5.3Y-2.0
X5.3Y-2.1
X5.3Y-2.2
X5.3Y-2.3
X5.3Y-2.4
X5.3Y-2.5
X5.3Y-2.6
X5.3Y-2.7
X5.3Y-2.8
X5.3Y-2.9
X5.3Y-3.0
X5.3Y-3.1
X5.3Y-3.2
X5.3Y-3.3
X5.3Y-3.4
X5.3Y-3.5
X5.3Y-3.6
X5.3Y-3.7
X5.3Y-3.8
X6.2Y-2.0
X6.2Y-2.1
X6.2Y-2.2
X6.2Y-2.3
X6.2Y-2.4
X6.2Y-2.5
X6.2Y-2.6
X6.2Y-2.7
X6.2Y-2.8
X6.2Y-2.9
X6.2Y-3.0
X6.2Y-3.1
X6.2Y-3.2
X6.2Y-3.3
X6.2Y-3.4
X6.2Y-3.5
X6.2Y-3.6
X6.2Y-3.7
X6.2Y-3.8
X6.64Y-1.88
X6.74Y-1.88
X6.84Y-1.88
X6.94Y-1.88
T4
X7.49Y-3.6734
X7.59Y-3.6734
X7.69Y-3.6734
X8.01Y-3.6734
X8.11Y-3.6734
X8.21Y-3.6734
T5
X6.46Y-3.6979
X6.46Y-4.19
X6.6569Y-3.6979
X6.6569Y-4.19
X6.97Y-3.6979
X6.97Y-4.19
X7.1669Y-3.6979
X7.1669Y-4.19
T6
X5.15Y-1.65
X5.15Y-4.15
X6.78Y-2.7
X6.78Y-3.29
X8.35Y-1.65
X8.35Y-4.15
T0
M30
