%TF.GenerationSoftware,KiCad,Pcbnew,(6.0.7)*%
%TF.CreationDate,2022-08-09T22:59:13-05:00*%
%TF.ProjectId,garage-door_opener,67617261-6765-42d6-946f-6f725f6f7065,rev?*%
%TF.SameCoordinates,Original*%
%TF.FileFunction,Soldermask,Bot*%
%TF.FilePolarity,Negative*%
%FSLAX46Y46*%
G04 Gerber Fmt 4.6, Leading zero omitted, Abs format (unit mm)*
G04 Created by KiCad (PCBNEW (6.0.7)) date 2022-08-09 22:59:13*
%MOMM*%
%LPD*%
G01*
G04 APERTURE LIST*
%ADD10C,3.600000*%
%ADD11C,5.600000*%
%ADD12O,1.850000X3.048000*%
%ADD13C,1.600000*%
%ADD14O,1.600000X1.600000*%
%ADD15R,1.700000X1.700000*%
%ADD16O,1.700000X1.700000*%
%ADD17O,3.500000X3.500000*%
%ADD18R,1.905000X2.000000*%
%ADD19O,1.905000X2.000000*%
G04 APERTURE END LIST*
D10*
%TO.C,H2*%
X172212000Y-83566000D03*
D11*
X172212000Y-83566000D03*
%TD*%
D12*
%TO.C,SW1*%
X164084000Y-93926000D03*
X164084000Y-106426000D03*
X169084000Y-106426000D03*
X169084000Y-93926000D03*
%TD*%
D13*
%TO.C,R2*%
X170180000Y-59690000D03*
D14*
X180340000Y-59690000D03*
%TD*%
D15*
%TO.C,J2*%
X157480000Y-50800000D03*
D16*
X157480000Y-53340000D03*
X157480000Y-55880000D03*
X157480000Y-58420000D03*
X157480000Y-60960000D03*
X157480000Y-63500000D03*
X157480000Y-66040000D03*
X157480000Y-68580000D03*
X157480000Y-71120000D03*
X157480000Y-73660000D03*
X157480000Y-76200000D03*
X157480000Y-78740000D03*
X157480000Y-81280000D03*
X157480000Y-83820000D03*
X157480000Y-86360000D03*
X157480000Y-88900000D03*
X157480000Y-91440000D03*
X157480000Y-93980000D03*
X157480000Y-96520000D03*
%TD*%
D13*
%TO.C,R1*%
X170180000Y-55880000D03*
D14*
X180340000Y-55880000D03*
%TD*%
D10*
%TO.C,REF\u002A\u002A*%
X212090000Y-41910000D03*
D11*
X212090000Y-41910000D03*
%TD*%
D15*
%TO.C,J3*%
X168656000Y-47752000D03*
D16*
X171196000Y-47752000D03*
X173736000Y-47752000D03*
X176276000Y-47752000D03*
%TD*%
D12*
%TO.C,SW2*%
X177038000Y-106426000D03*
X177038000Y-93926000D03*
X182038000Y-106426000D03*
X182038000Y-93926000D03*
%TD*%
D13*
%TO.C,R5*%
X187706000Y-99822000D03*
D14*
X197866000Y-99822000D03*
%TD*%
D10*
%TO.C,mnt*%
X212090000Y-105410000D03*
D11*
X212090000Y-105410000D03*
%TD*%
D13*
%TO.C,R4*%
X201168000Y-67818000D03*
D14*
X211328000Y-67818000D03*
%TD*%
D17*
%TO.C,Q1*%
X192786000Y-76644000D03*
D18*
X190246000Y-93304000D03*
D19*
X192786000Y-93304000D03*
X195326000Y-93304000D03*
%TD*%
D13*
%TO.C,R6*%
X201422000Y-99822000D03*
D14*
X211582000Y-99822000D03*
%TD*%
D13*
%TO.C,R3*%
X187452000Y-67818000D03*
D14*
X197612000Y-67818000D03*
%TD*%
D10*
%TO.C,H1*%
X172212000Y-68580000D03*
D11*
X172212000Y-68580000D03*
%TD*%
D10*
%TO.C,mnt*%
X130810000Y-105410000D03*
D11*
X130810000Y-105410000D03*
%TD*%
D17*
%TO.C,Q2*%
X205994000Y-76644000D03*
D18*
X203454000Y-93304000D03*
D19*
X205994000Y-93304000D03*
X208534000Y-93304000D03*
%TD*%
D10*
%TO.C,REF\u002A\u002A*%
X130810000Y-41910000D03*
D11*
X130810000Y-41910000D03*
%TD*%
D15*
%TO.C,J1*%
X134620000Y-50800000D03*
D16*
X134620000Y-53340000D03*
X134620000Y-55880000D03*
X134620000Y-58420000D03*
X134620000Y-60960000D03*
X134620000Y-63500000D03*
X134620000Y-66040000D03*
X134620000Y-68580000D03*
X134620000Y-71120000D03*
X134620000Y-73660000D03*
X134620000Y-76200000D03*
X134620000Y-78740000D03*
X134620000Y-81280000D03*
X134620000Y-83820000D03*
X134620000Y-86360000D03*
X134620000Y-88900000D03*
X134620000Y-91440000D03*
X134620000Y-93980000D03*
X134620000Y-96520000D03*
%TD*%
M02*
